<svg width="140" height="28" viewBox="0 0 140 28" fill="none" xmlns="http://www.w3.org/2000/svg">
<path d="M26.0718 17.77C26.0118 17.63 25.8618 17.54 25.6818 17.54H21.1718C20.8918 17.54 20.6918 17.31 20.7818 17.09L23.4118 10.91C23.4418 10.84 23.4418 10.76 23.4118 10.68L21.2018 5.48C21.0718 5.18 20.5618 5.18 20.4318 5.48L14.5718 19.23C14.4418 19.53 13.9218 19.53 13.8018 19.23L6.09181 0.23C6.03181 0.09 5.88181 0 5.70181 0H0.411808C0.131808 0 -0.0681924 0.23 0.0218076 0.45L11.3718 27.11C11.4318 27.25 11.5818 27.34 11.7618 27.34H16.1318C16.3018 27.34 16.4618 27.25 16.5218 27.11L18.8618 21.62C18.9218 21.48 19.0718 21.39 19.2518 21.39H27.0418C27.3218 21.39 27.5218 21.16 27.4318 20.94L26.0818 17.77H26.0718Z" fill="white"/>
<path d="M44.1918 9.33H39.4518C39.2618 9.33 39.1018 9.43 39.0318 9.58L34.9818 19.43C34.8418 19.77 34.2918 19.77 34.1518 19.43L26.3118 0.38C26.2218 0.15 25.9618 0 25.6818 0H18.4018C18.1018 0 17.8818 0.25 17.9918 0.49L19.3218 3.61C19.3818 3.76 19.5518 3.85 19.7318 3.85H21.9118C22.1018 3.85 22.2618 3.95 22.3318 4.1L25.0818 10.69L32.0318 27.09C32.0918 27.24 32.2618 27.33 32.4418 27.33H36.7718C36.9618 27.33 37.1218 27.23 37.1818 27.09L44.5918 9.81C44.6918 9.57 44.4818 9.32 44.1818 9.32L44.1918 9.33Z" fill="white"/>
<path d="M56.3418 23.14V22.09H55.6618V27.34H56.3718V24.66C56.3718 24.04 56.5318 23.56 56.8418 23.22C57.1518 22.88 57.5918 22.72 58.1418 22.72C58.1718 22.72 58.1918 22.72 58.2218 22.72C58.2518 22.72 58.2718 22.72 58.3018 22.72V22.03C57.7918 22.03 57.3618 22.13 57.0118 22.34C56.7018 22.53 56.4918 22.8 56.3418 23.13V23.14Z" fill="white"/>
<path d="M64.0218 22.37C63.6418 22.15 63.2018 22.04 62.7018 22.04C62.2018 22.04 61.7818 22.15 61.3918 22.38C61.0018 22.61 60.6918 22.92 60.4718 23.33C60.2518 23.73 60.1418 24.19 60.1418 24.71C60.1418 25.23 60.2618 25.69 60.4918 26.09C60.7218 26.49 61.0518 26.81 61.4618 27.04C61.8718 27.27 62.3518 27.38 62.9018 27.38C63.3218 27.38 63.7018 27.31 64.0618 27.16C64.4118 27.01 64.7018 26.8 64.9418 26.52L64.5418 26.06C64.3418 26.29 64.1018 26.47 63.8318 26.58C63.5618 26.69 63.2518 26.75 62.9418 26.75C62.5318 26.75 62.1718 26.67 61.8518 26.5C61.5318 26.33 61.2918 26.09 61.1118 25.79C60.9618 25.54 60.8918 25.24 60.8718 24.92H65.2718C65.2718 24.92 65.2718 24.84 65.2718 24.81C65.2718 24.77 65.2718 24.74 65.2718 24.71C65.2718 24.18 65.1618 23.72 64.9418 23.31C64.7218 22.91 64.4218 22.59 64.0318 22.37H64.0218ZM61.0718 23.59C61.2318 23.29 61.4518 23.06 61.7418 22.89C62.0318 22.72 62.3518 22.64 62.7118 22.64C63.0718 22.64 63.4018 22.72 63.6818 22.89C63.9618 23.06 64.1818 23.29 64.3518 23.58C64.4818 23.82 64.5518 24.09 64.5718 24.39H60.8618C60.8918 24.1 60.9518 23.83 61.0818 23.59H61.0718Z" fill="white"/>
<path d="M71.6418 22.28C71.3218 22.12 70.9418 22.04 70.5218 22.04C70.0118 22.04 69.5818 22.15 69.2118 22.36C68.9118 22.54 68.6918 22.79 68.5218 23.08V22.08H67.8418V27.33H68.5518V24.57C68.5518 24.17 68.6318 23.83 68.7718 23.54C68.9218 23.26 69.1318 23.04 69.4118 22.89C69.6918 22.74 70.0118 22.66 70.3818 22.66C70.8818 22.66 71.2718 22.8 71.5518 23.09C71.8318 23.37 71.9618 23.79 71.9618 24.34V27.32H72.6718V24.27C72.6718 23.76 72.5818 23.34 72.3918 23.01C72.2118 22.68 71.9518 22.43 71.6318 22.26L71.6418 22.28Z" fill="white"/>
<path d="M77.4718 26.78C77.1818 26.78 76.9518 26.7 76.7918 26.53C76.6318 26.36 76.5618 26.13 76.5618 25.82V22.68H78.1618V22.09H76.5618V20.93H75.8518V22.09H74.9118V22.68H75.8518V25.86C75.8518 26.35 75.9818 26.72 76.2518 26.99C76.5218 27.26 76.9018 27.39 77.3918 27.39C77.6018 27.39 77.8018 27.36 77.9918 27.3C78.1818 27.24 78.3618 27.15 78.4918 27.02L78.2418 26.51C78.0318 26.69 77.7718 26.78 77.4618 26.78H77.4718Z" fill="white"/>
<path d="M86.5018 22.04C86.0918 22.04 85.6918 22.1 85.3218 22.22C84.9518 22.34 84.6318 22.52 84.3618 22.75L84.6818 23.28C84.8918 23.09 85.1518 22.94 85.4618 22.83C85.7718 22.72 86.0918 22.66 86.4318 22.66C86.9218 22.66 87.3018 22.78 87.5518 23.02C87.8018 23.26 87.9318 23.6 87.9318 24.05V24.37H86.2618C85.7618 24.37 85.3618 24.44 85.0618 24.58C84.7618 24.72 84.5518 24.9 84.4218 25.12C84.2918 25.34 84.2218 25.59 84.2218 25.87C84.2218 26.17 84.3018 26.43 84.4518 26.66C84.6018 26.89 84.8318 27.07 85.1218 27.2C85.4118 27.33 85.7518 27.39 86.1418 27.39C86.6418 27.39 87.0618 27.29 87.3918 27.08C87.6418 26.92 87.8218 26.71 87.9618 26.47V27.34H88.6418V24.08C88.6418 23.39 88.4618 22.88 88.0918 22.54C87.7218 22.2 87.1918 22.04 86.5118 22.04H86.5018ZM87.2918 26.55C87.0018 26.73 86.6618 26.83 86.2518 26.83C85.8418 26.83 85.5018 26.74 85.2718 26.56C85.0418 26.38 84.9218 26.14 84.9218 25.84C84.9218 25.57 85.0218 25.35 85.2118 25.17C85.4118 24.99 85.7618 24.9 86.2618 24.9H87.9118V25.76C87.7818 26.11 87.5718 26.37 87.2818 26.55H87.2918Z" fill="white"/>
<path d="M96.6018 22.91C96.9018 22.74 97.2418 22.65 97.6118 22.65C97.9218 22.65 98.2118 22.71 98.4818 22.84C98.7518 22.97 98.9718 23.16 99.1518 23.43L99.6818 23.07C99.4718 22.72 99.1918 22.46 98.8318 22.29C98.4718 22.12 98.0718 22.03 97.6218 22.03C97.1018 22.03 96.6318 22.14 96.2318 22.37C95.8218 22.6 95.5018 22.91 95.2618 23.31C95.0218 23.71 94.9118 24.17 94.9118 24.7C94.9118 25.23 95.0318 25.68 95.2618 26.08C95.4918 26.48 95.8218 26.8 96.2318 27.03C96.6418 27.26 97.1118 27.37 97.6218 27.37C98.0718 27.37 98.4718 27.28 98.8318 27.11C99.1918 26.94 99.4718 26.67 99.6818 26.33L99.1518 25.97C98.9718 26.23 98.7518 26.42 98.4818 26.55C98.2118 26.68 97.9218 26.74 97.6118 26.74C97.2418 26.74 96.9018 26.66 96.6018 26.49C96.3018 26.32 96.0618 26.08 95.8918 25.78C95.7218 25.47 95.6318 25.11 95.6318 24.7C95.6318 24.29 95.7218 23.93 95.8918 23.62C96.0618 23.31 96.3018 23.08 96.6018 22.91Z" fill="white"/>
<path d="M104.042 22.04C103.632 22.04 103.232 22.1 102.862 22.22C102.492 22.34 102.172 22.52 101.902 22.75L102.222 23.28C102.432 23.09 102.692 22.94 103.002 22.83C103.312 22.72 103.632 22.66 103.972 22.66C104.462 22.66 104.842 22.78 105.092 23.02C105.342 23.26 105.472 23.6 105.472 24.05V24.37H103.802C103.302 24.37 102.902 24.44 102.602 24.58C102.302 24.72 102.092 24.9 101.962 25.12C101.832 25.34 101.762 25.59 101.762 25.87C101.762 26.17 101.842 26.43 101.992 26.66C102.142 26.89 102.372 27.07 102.662 27.2C102.952 27.33 103.292 27.39 103.682 27.39C104.182 27.39 104.602 27.29 104.932 27.08C105.182 26.92 105.362 26.71 105.502 26.47V27.34H106.182V24.08C106.182 23.39 106.002 22.88 105.632 22.54C105.262 22.2 104.732 22.04 104.052 22.04H104.042ZM104.832 26.55C104.542 26.73 104.202 26.83 103.792 26.83C103.382 26.83 103.042 26.74 102.812 26.56C102.582 26.38 102.462 26.14 102.462 25.84C102.462 25.57 102.562 25.35 102.752 25.17C102.952 24.99 103.302 24.9 103.802 24.9H105.452V25.76C105.322 26.11 105.112 26.37 104.822 26.55H104.832Z" fill="white"/>
<path d="M109.912 23.14V22.09H109.232V27.34H109.942V24.66C109.942 24.04 110.102 23.56 110.412 23.22C110.722 22.88 111.162 22.72 111.712 22.72C111.742 22.72 111.762 22.72 111.792 22.72C111.822 22.72 111.842 22.72 111.872 22.72V22.03C111.362 22.03 110.932 22.13 110.582 22.34C110.272 22.52 110.062 22.8 109.912 23.13V23.14Z" fill="white"/>
<path d="M69.3618 13.98L70.9218 17.76H75.2018L67.3318 0.14H63.3018L55.4518 17.76H59.6318L61.2018 13.98H69.3718H69.3618ZM65.2818 4.14L68.0718 10.89H62.4718L65.2718 4.14H65.2818Z" fill="white"/>
<path d="M83.9718 0.14H79.8918V17.76H83.9718V0.14Z" fill="white"/>
<path d="M109.522 12.61L105.492 0.14H101.712L97.5618 12.52L93.5818 0.14H89.3518L95.1218 17.76H99.5018L103.492 5.82L107.382 17.76H111.762L117.522 0.14H113.622L109.522 12.61Z" fill="white"/>
<path d="M135.222 17.76H139.502L131.622 0.14H127.592L119.742 17.76H123.922L125.492 13.98H133.662L135.222 17.76ZM126.772 10.89L129.572 4.14L132.362 10.89H126.762H126.772Z" fill="white"/>
</svg>
