<svg width="80" height="103" viewBox="0 0 80 103" fill="none" xmlns="http://www.w3.org/2000/svg">
<path fill-rule="evenodd" clip-rule="evenodd" d="M53.904 91.6975C65.4527 77.2548 80 56.272 80 42.2126C80 18.8992 62.0914 0 40 0C17.9086 0 0 18.8992 0 42.2126C0 56.272 14.5473 77.2548 26.096 91.6975C32.1212 99.2325 35.1338 103 40 103C44.8662 103 47.8788 99.2325 53.904 91.6975ZM40 58.8418C31.7157 58.8418 25 52.2557 25 44.1314C25 36.007 31.7157 29.4209 40 29.4209C48.2843 29.4209 55 36.007 55 44.1314C55 52.2557 48.2843 58.8418 40 58.8418Z" fill="#0D0D0D"/>
</svg>
